<mxfile host="app.diagrams.net" modified="2024-07-01T01:19:27.785Z" agent="Mozilla/5.0 (Windows NT 10.0; Win64; x64) AppleWebKit/537.36 (KHTML, like Gecko) Chrome/126.0.0.0 Safari/537.36" etag="hPItYC6PquQbt8mB63xf" version="24.6.4" type="github">
  <diagram name="페이지-1" id="lmzM2UctvJnTakUjIo2O">
    <mxGraphModel dx="972" dy="1131" grid="1" gridSize="10" guides="1" tooltips="1" connect="1" arrows="1" fold="1" page="1" pageScale="1" pageWidth="827" pageHeight="1169" math="0" shadow="0">
      <root>
        <mxCell id="0" />
        <mxCell id="1" parent="0" />
        <mxCell id="JMiy-2JYdWKJZKDqPU3f-18" style="edgeStyle=orthogonalEdgeStyle;rounded=0;orthogonalLoop=1;jettySize=auto;html=1;exitX=1;exitY=0.3333333333333333;exitDx=0;exitDy=0;exitPerimeter=0;" edge="1" parent="1" source="JMiy-2JYdWKJZKDqPU3f-1" target="JMiy-2JYdWKJZKDqPU3f-7">
          <mxGeometry relative="1" as="geometry" />
        </mxCell>
        <mxCell id="JMiy-2JYdWKJZKDqPU3f-1" value="사용자" style="shape=umlActor;verticalLabelPosition=bottom;verticalAlign=top;html=1;outlineConnect=0;" vertex="1" parent="1">
          <mxGeometry x="50" y="200" width="30" height="60" as="geometry" />
        </mxCell>
        <mxCell id="JMiy-2JYdWKJZKDqPU3f-11" style="edgeStyle=orthogonalEdgeStyle;rounded=0;orthogonalLoop=1;jettySize=auto;html=1;exitX=0.5;exitY=0.5;exitDx=0;exitDy=0;exitPerimeter=0;entryX=0.5;entryY=0.5;entryDx=0;entryDy=0;entryPerimeter=0;" edge="1" parent="1" source="JMiy-2JYdWKJZKDqPU3f-2" target="JMiy-2JYdWKJZKDqPU3f-2">
          <mxGeometry relative="1" as="geometry">
            <mxPoint x="125" y="550" as="targetPoint" />
          </mxGeometry>
        </mxCell>
        <mxCell id="JMiy-2JYdWKJZKDqPU3f-19" style="edgeStyle=orthogonalEdgeStyle;rounded=0;orthogonalLoop=1;jettySize=auto;html=1;exitX=1;exitY=0.3333333333333333;exitDx=0;exitDy=0;exitPerimeter=0;" edge="1" parent="1" source="JMiy-2JYdWKJZKDqPU3f-2" target="JMiy-2JYdWKJZKDqPU3f-10">
          <mxGeometry relative="1" as="geometry">
            <Array as="points">
              <mxPoint x="210" y="640" />
              <mxPoint x="210" y="620" />
            </Array>
          </mxGeometry>
        </mxCell>
        <mxCell id="JMiy-2JYdWKJZKDqPU3f-20" style="edgeStyle=orthogonalEdgeStyle;rounded=0;orthogonalLoop=1;jettySize=auto;html=1;exitX=1;exitY=0.3333333333333333;exitDx=0;exitDy=0;exitPerimeter=0;entryX=0;entryY=0.5;entryDx=0;entryDy=0;" edge="1" parent="1" source="JMiy-2JYdWKJZKDqPU3f-2" target="JMiy-2JYdWKJZKDqPU3f-9">
          <mxGeometry relative="1" as="geometry" />
        </mxCell>
        <mxCell id="JMiy-2JYdWKJZKDqPU3f-2" value="관리자" style="shape=umlActor;verticalLabelPosition=bottom;verticalAlign=top;html=1;outlineConnect=0;" vertex="1" parent="1">
          <mxGeometry x="110" y="620" width="30" height="60" as="geometry" />
        </mxCell>
        <mxCell id="JMiy-2JYdWKJZKDqPU3f-14" style="edgeStyle=orthogonalEdgeStyle;rounded=0;orthogonalLoop=1;jettySize=auto;html=1;exitX=1;exitY=0.5;exitDx=0;exitDy=0;entryX=0;entryY=0.5;entryDx=0;entryDy=0;" edge="1" parent="1" source="JMiy-2JYdWKJZKDqPU3f-3" target="JMiy-2JYdWKJZKDqPU3f-6">
          <mxGeometry relative="1" as="geometry" />
        </mxCell>
        <mxCell id="JMiy-2JYdWKJZKDqPU3f-3" value="게시글 작성" style="ellipse;whiteSpace=wrap;html=1;" vertex="1" parent="1">
          <mxGeometry x="190" y="100" width="120" height="80" as="geometry" />
        </mxCell>
        <mxCell id="JMiy-2JYdWKJZKDqPU3f-4" value="게시글 수정" style="ellipse;whiteSpace=wrap;html=1;" vertex="1" parent="1">
          <mxGeometry x="500" y="110" width="120" height="80" as="geometry" />
        </mxCell>
        <mxCell id="JMiy-2JYdWKJZKDqPU3f-5" value="게시글 상세 보기" style="ellipse;whiteSpace=wrap;html=1;" vertex="1" parent="1">
          <mxGeometry x="500" width="120" height="80" as="geometry" />
        </mxCell>
        <mxCell id="JMiy-2JYdWKJZKDqPU3f-16" style="edgeStyle=orthogonalEdgeStyle;rounded=0;orthogonalLoop=1;jettySize=auto;html=1;exitX=1;exitY=1;exitDx=0;exitDy=0;entryX=0;entryY=0.5;entryDx=0;entryDy=0;" edge="1" parent="1" source="JMiy-2JYdWKJZKDqPU3f-6" target="JMiy-2JYdWKJZKDqPU3f-8">
          <mxGeometry relative="1" as="geometry" />
        </mxCell>
        <mxCell id="JMiy-2JYdWKJZKDqPU3f-17" style="edgeStyle=orthogonalEdgeStyle;rounded=0;orthogonalLoop=1;jettySize=auto;html=1;exitX=1;exitY=0;exitDx=0;exitDy=0;entryX=0;entryY=0.5;entryDx=0;entryDy=0;" edge="1" parent="1" source="JMiy-2JYdWKJZKDqPU3f-6" target="JMiy-2JYdWKJZKDqPU3f-5">
          <mxGeometry relative="1" as="geometry" />
        </mxCell>
        <mxCell id="JMiy-2JYdWKJZKDqPU3f-6" value="게시글 목록 보기" style="ellipse;whiteSpace=wrap;html=1;" vertex="1" parent="1">
          <mxGeometry x="340" y="100" width="120" height="80" as="geometry" />
        </mxCell>
        <mxCell id="JMiy-2JYdWKJZKDqPU3f-7" value="댓글 작성" style="ellipse;whiteSpace=wrap;html=1;" vertex="1" parent="1">
          <mxGeometry x="250" y="220" width="120" height="80" as="geometry" />
        </mxCell>
        <mxCell id="JMiy-2JYdWKJZKDqPU3f-8" value="게시글 삭제" style="ellipse;whiteSpace=wrap;html=1;" vertex="1" parent="1">
          <mxGeometry x="500" y="220" width="120" height="80" as="geometry" />
        </mxCell>
        <mxCell id="JMiy-2JYdWKJZKDqPU3f-9" value="댓글 관리" style="ellipse;whiteSpace=wrap;html=1;" vertex="1" parent="1">
          <mxGeometry x="280" y="660" width="120" height="80" as="geometry" />
        </mxCell>
        <mxCell id="JMiy-2JYdWKJZKDqPU3f-10" value="게시글 목록 관리" style="ellipse;whiteSpace=wrap;html=1;" vertex="1" parent="1">
          <mxGeometry x="280" y="580" width="120" height="80" as="geometry" />
        </mxCell>
        <mxCell id="JMiy-2JYdWKJZKDqPU3f-13" style="edgeStyle=orthogonalEdgeStyle;rounded=0;orthogonalLoop=1;jettySize=auto;html=1;exitX=1;exitY=0.3333333333333333;exitDx=0;exitDy=0;exitPerimeter=0;entryX=0.35;entryY=1.038;entryDx=0;entryDy=0;entryPerimeter=0;" edge="1" parent="1" source="JMiy-2JYdWKJZKDqPU3f-1" target="JMiy-2JYdWKJZKDqPU3f-3">
          <mxGeometry relative="1" as="geometry" />
        </mxCell>
        <mxCell id="JMiy-2JYdWKJZKDqPU3f-15" style="edgeStyle=orthogonalEdgeStyle;rounded=0;orthogonalLoop=1;jettySize=auto;html=1;entryX=0.008;entryY=0.425;entryDx=0;entryDy=0;entryPerimeter=0;exitX=0.992;exitY=0.4;exitDx=0;exitDy=0;exitPerimeter=0;" edge="1" parent="1" source="JMiy-2JYdWKJZKDqPU3f-6" target="JMiy-2JYdWKJZKDqPU3f-4">
          <mxGeometry relative="1" as="geometry" />
        </mxCell>
      </root>
    </mxGraphModel>
  </diagram>
</mxfile>
